<?xml version="1.0" standalone="no"?>
<!DOCTYPE svg PUBLIC "-//W3C//DTD SVG 20010904//EN"
 "http://www.w3.org/TR/2001/REC-SVG-20010904/DTD/svg10.dtd">
<svg version="1.0" xmlns="http://www.w3.org/2000/svg"
 width="300.000000pt" height="300.000000pt" viewBox="0 0 300.000000 300.000000"
 preserveAspectRatio="xMidYMid meet">
<metadata>
Created by potrace 1.15, written by Peter Selinger 2001-2017
</metadata>
<g transform="translate(0.000000,300.000000) scale(0.100000,-0.100000)"
fill="#000000" stroke="none">
<path d="M0 1500 l0 -1500 1500 0 1500 0 0 1500 0 1500 -1500 0 -1500 0 0
-1500z m2327 887 l28 -27 0 -248 c0 -217 -2 -251 -18 -279 -24 -45 -64 -63
-137 -63 -124 0 -152 39 -158 213 l-4 117 -339 0 -339 0 0 -185 0 -185 125 0
125 0 0 32 c0 17 9 51 20 74 46 93 199 100 264 11 20 -27 21 -41 21 -275 0
-271 -4 -291 -62 -329 -40 -26 -143 -25 -180 3 -37 27 -63 80 -63 127 l0 37
-125 0 -125 0 0 -219 0 -218 84 -5 c94 -5 126 -19 153 -71 21 -42 21 -142 -1
-185 -33 -65 -47 -67 -386 -67 -285 0 -307 1 -337 20 -43 26 -63 70 -63 143 0
45 5 67 23 93 26 40 79 69 125 69 l32 0 0 560 0 560 -42 0 c-87 0 -138 61
-138 165 0 82 33 136 96 155 16 5 336 8 711 7 l683 -2 27 -28z"/>
</g>
</svg>
